<svg xmlns="http://www.w3.org/2000/svg" width="86.675" height="80.697" viewBox="0 0 86.675 80.697">
  <g id="グループ_80" data-name="グループ 80" transform="translate(-569.528 -1296.293)">
    <g id="グループ_79" data-name="グループ 79">
      <g id="グループ_78" data-name="グループ 78">
        <g id="グループ_77" data-name="グループ 77">
          <g id="グループ_76" data-name="グループ 76">
            <g id="グループ_75" data-name="グループ 75">
              <g id="グループ_74" data-name="グループ 74">
                <g id="グループ_73" data-name="グループ 73">
                  <g id="グループ_72" data-name="グループ 72">
                    <g id="グループ_71" data-name="グループ 71">
                      <g id="グループ_70" data-name="グループ 70">
                        <g id="グループ_69" data-name="グループ 69">
                          <g id="グループ_68" data-name="グループ 68">
                            <path id="パス_29" data-name="パス 29" d="M197.525,738.552a1.5,1.5,0,0,0-1.495,1.495v1.494a1.494,1.494,0,0,0,2.989,0v-1.494A1.494,1.494,0,0,0,197.525,738.552Z" transform="translate(412.352 624.241)" fill="#070304"/>
                            <path id="パス_30" data-name="パス 30" d="M203.5,738.552a1.494,1.494,0,0,0-1.494,1.495v1.494a1.494,1.494,0,0,0,2.989,0v-1.494A1.5,1.5,0,0,0,203.5,738.552Z" transform="translate(412.352 624.241)" fill="#070304"/>
                            <path id="パス_31" data-name="パス 31" d="M209.48,684.007H205v-4.483H196.03v4.483h-4.483v8.967h4.483v4.483H205v-4.483h4.483Zm-2.989,5.978h-4.483v4.483h-2.989v-4.483h-4.483V687h4.483v-4.483h2.989V687h4.483Z" transform="translate(412.352 624.241)" fill="#070304"/>
                            <path id="パス_32" data-name="パス 32" d="M190.053,701.94h-5.978a1.494,1.494,0,0,0-1.494,1.494v5.978a1.494,1.494,0,0,0,1.494,1.494h5.978a1.494,1.494,0,0,0,1.494-1.494v-5.978A1.494,1.494,0,0,0,190.053,701.94Zm-1.495,5.977H185.57v-2.988h2.988Z" transform="translate(412.352 624.241)" fill="#070304"/>
                            <path id="パス_33" data-name="パス 33" d="M216.952,701.94h-5.978a1.494,1.494,0,0,0-1.494,1.494v5.978a1.494,1.494,0,0,0,1.494,1.494h5.978a1.494,1.494,0,0,0,1.494-1.494v-5.978A1.494,1.494,0,0,0,216.952,701.94Zm-1.495,5.977h-2.989v-2.988h2.989Z" transform="translate(412.352 624.241)" fill="#070304"/>
                            <path id="パス_34" data-name="パス 34" d="M190.053,715.389h-5.978a1.494,1.494,0,0,0-1.494,1.495v5.977a1.494,1.494,0,0,0,1.494,1.495h5.978a1.494,1.494,0,0,0,1.494-1.495v-5.977A1.494,1.494,0,0,0,190.053,715.389Zm-1.495,5.978H185.57v-2.989h2.988Z" transform="translate(412.352 624.241)" fill="#070304"/>
                            <path id="パス_35" data-name="パス 35" d="M176.6,701.94h-5.977a1.494,1.494,0,0,0-1.5,1.494v5.978a1.494,1.494,0,0,0,1.5,1.494H176.6a1.494,1.494,0,0,0,1.5-1.494v-5.978A1.494,1.494,0,0,0,176.6,701.94Zm-1.494,5.977H172.12v-2.988h2.989Z" transform="translate(412.352 624.241)" fill="#070304"/>
                            <path id="パス_36" data-name="パス 36" d="M176.6,715.389h-5.977a1.5,1.5,0,0,0-1.5,1.495v5.977a1.5,1.5,0,0,0,1.5,1.495H176.6a1.5,1.5,0,0,0,1.5-1.495v-5.977A1.5,1.5,0,0,0,176.6,715.389Zm-1.494,5.978H172.12v-2.989h2.989Z" transform="translate(412.352 624.241)" fill="#070304"/>
                            <path id="パス_37" data-name="パス 37" d="M216.952,715.389h-5.978a1.494,1.494,0,0,0-1.494,1.495v5.977a1.494,1.494,0,0,0,1.494,1.495h5.978a1.494,1.494,0,0,0,1.494-1.495v-5.977A1.494,1.494,0,0,0,216.952,715.389Zm-1.495,5.978h-2.989v-2.989h2.989Z" transform="translate(412.352 624.241)" fill="#070304"/>
                            <path id="パス_38" data-name="パス 38" d="M230.4,701.94h-5.977a1.494,1.494,0,0,0-1.495,1.494v5.978a1.494,1.494,0,0,0,1.495,1.494H230.4a1.494,1.494,0,0,0,1.494-1.494v-5.978A1.494,1.494,0,0,0,230.4,701.94Zm-1.494,5.977h-2.989v-2.988h2.989Z" transform="translate(412.352 624.241)" fill="#070304"/>
                            <path id="パス_39" data-name="パス 39" d="M230.4,715.389h-5.977a1.5,1.5,0,0,0-1.495,1.495v5.977a1.5,1.5,0,0,0,1.495,1.495H230.4a1.494,1.494,0,0,0,1.494-1.495v-5.977A1.494,1.494,0,0,0,230.4,715.389Zm-1.494,5.978h-2.989v-2.989h2.989Z" transform="translate(412.352 624.241)" fill="#070304"/>
                            <path id="パス_28" data-name="パス 28" d="M242.356,749.76h-2.989V673.547a1.494,1.494,0,0,0-1.494-1.495H163.154a1.5,1.5,0,0,0-1.5,1.495V749.76h-2.988a1.495,1.495,0,1,0,0,2.989h83.685a1.495,1.495,0,1,0,0-2.989Zm-49.315,0V731.828h14.944V749.76Zm17.933,0V730.333a1.494,1.494,0,0,0-1.494-1.494H191.547a1.494,1.494,0,0,0-1.494,1.494V749.76h-25.4V675.041h71.731V749.76Z" transform="translate(412.352 624.241)" fill="#070304"/>
                          </g>
                        </g>
                      </g>
                    </g>
                  </g>
                </g>
              </g>
            </g>
          </g>
        </g>
      </g>
    </g>
  </g>
</svg>
