<svg xmlns="http://www.w3.org/2000/svg" width="80.998" height="53.42" viewBox="0 0 80.998 53.42">
  <g id="グループ_65" data-name="グループ 65" transform="translate(-1211.988 -1098.141)">
    <g id="グループ_62" data-name="グループ 62" transform="translate(553 203)">
      <rect id="長方形_14" data-name="長方形 14" width="28.055" height="47.978" rx="4.949" transform="translate(659.988 899.301)" fill="#fff" stroke="#070203" stroke-linecap="round" stroke-linejoin="round" stroke-width="2"/>
      <rect id="長方形_15" data-name="長方形 15" width="19.881" height="34.725" transform="translate(664.075 904.004)" fill="#fff" stroke="#070203" stroke-linecap="round" stroke-linejoin="round" stroke-width="2"/>
      <path id="パス_22" data-name="パス 22" d="M246.589,389.34s-3.6.219-3.64-2.836c-.006-.4-1.6-4.209-1.718-4.492-.15-.346-.172-1.635.973-1.005s2.062,3.507,2.062,4.073a12.821,12.821,0,0,0,.445-4.222c-.209-1.42-1.1-5.437.157-5.332s1.617,5.842,1.669,6.26-.052-7.408,1.2-6.834.834,6.1.73,6.729,1.3-5.216,1.93-5.582,1.409,1.744,0,6.454c-1.155,3.862,1.794-.212,2.893-1.805a.513.513,0,0,1,.923.4,6.162,6.162,0,0,1-1.341,2.27,12.49,12.49,0,0,0-2.194,4.214C250.374,388.617,249.387,389.586,246.589,389.34Z" transform="translate(428.352 536.241)" fill="#fff" stroke="#070203" stroke-linecap="round" stroke-linejoin="round" stroke-width="0.5"/>
      <circle id="楕円形_21" data-name="楕円形 21" cx="0.237" cy="0.237" r="0.237" transform="translate(678.627 915.737)" fill="#cf090f"/>
      <circle id="楕円形_22" data-name="楕円形 22" cx="0.237" cy="0.237" r="0.237" transform="translate(677.945 915.814)" fill="#cf090f"/>
      <circle id="楕円形_23" data-name="楕円形 23" cx="0.237" cy="0.237" r="0.237" transform="translate(678.39 916.419)" fill="#cf090f"/>
      <circle id="楕円形_24" data-name="楕円形 24" cx="0.237" cy="0.237" r="0.237" transform="translate(677.708 916.551)" fill="#cf090f"/>
      <circle id="楕円形_25" data-name="楕円形 25" cx="0.237" cy="0.237" r="0.237" transform="translate(677.471 916.111)" fill="#cf090f"/>
      <circle id="楕円形_26" data-name="楕円形 26" cx="2.488" cy="2.488" r="2.488" transform="translate(671.528 940.141)" fill="#fff" stroke="#070203" stroke-linecap="round" stroke-linejoin="round" stroke-width="2"/>
    </g>
    <path id="パス_23" data-name="パス 23" d="M283.455,411.177s-12.8.778-12.942-10.081c-.019-1.44-5.672-14.965-6.108-15.971-.533-1.23-.611-5.814,3.461-3.574s7.33,12.468,7.33,14.48,2.324-9.959,1.582-15.008-3.9-19.331.557-18.96,5.749,20.773,5.935,22.257-.186-26.337,4.266-24.3,2.967,21.7,2.6,23.926,4.637-18.547,6.863-19.846,5.007,6.2,0,22.946c-4.107,13.73,6.377-.757,10.285-6.418a1.823,1.823,0,0,1,3.282,1.42c-.382,1.714-1.685,4.269-4.769,8.073a44.413,44.413,0,0,0-7.8,14.982C296.912,408.608,293.4,412.052,283.455,411.177Z" transform="translate(981.352 739.241)" fill="#fff" stroke="#070203" stroke-linecap="round" stroke-linejoin="round" stroke-width="2"/>
    <circle id="楕円形_27" data-name="楕円形 27" cx="0.844" cy="0.844" r="0.844" transform="translate(1277.913 1115.419)" fill="#cf090f"/>
    <circle id="楕円形_28" data-name="楕円形 28" cx="0.844" cy="0.844" r="0.844" transform="translate(1275.488 1115.693)" fill="#cf090f"/>
    <circle id="楕円形_29" data-name="楕円形 29" cx="0.844" cy="0.844" r="0.844" transform="translate(1277.069 1117.844)" fill="#cf090f"/>
    <circle id="楕円形_30" data-name="楕円形 30" cx="0.844" cy="0.844" r="0.844" transform="translate(1274.644 1118.314)" fill="#cf090f"/>
    <circle id="楕円形_31" data-name="楕円形 31" cx="0.844" cy="0.844" r="0.844" transform="translate(1273.8 1116.749)" fill="#cf090f"/>
  </g>
</svg>
