<svg xmlns="http://www.w3.org/2000/svg" xmlns:xlink="http://www.w3.org/1999/xlink" width="425.722" height="104.564" viewBox="0 0 425.722 104.564">
  <defs>
    <linearGradient id="linear-gradient" x1="0.5" y1="-0.811" x2="0.5" y2="0.678" gradientUnits="objectBoundingBox">
      <stop offset="0.165" stop-color="#1683c9"/>
      <stop offset="1" stop-color="#54abe2"/>
    </linearGradient>
  </defs>
  <g id="グループ_53" data-name="グループ 53" transform="translate(-159.769 -518.973)">
    <path id="パス_1" data-name="パス 1" d="M211.155,519.066c-22.564-1.389-41.562,12.807-41.134,35.934l-.015,2.1-9.8,17.31a3.338,3.338,0,0,0,2.26,4.921l6.06,1.673,1.9,18.357a6.33,6.33,0,0,0,7.028,6.113l4.836.384A3.34,3.34,0,0,1,186,609.174v14.362h40.931v-9.723c0-2.79.962-9.17,2.792-12.091,6.634-10.61,17.437-16.255,19.257-38.014S237.813,520.709,211.155,519.066Zm-26.192,46.091c7.386,0,9.748-2.819,9.748-11.64,0,8.822,2.36,11.64,9.746,11.64-7.386,0-9.746,2.821-9.746,11.64C194.711,567.978,192.349,565.157,184.963,565.157Zm17.384,37.972c0-14.305-1.625-16.95-10.413-16.95,8.787,0,10.413-2.646,10.413-16.95,0,14.3,1.625,16.95,10.413,16.95C203.972,586.18,202.347,588.824,202.347,603.13Z" transform="translate(0 0)" fill="#fdd4b3"/>
    <path id="合体_1" data-name="合体 1" d="M176.28,33.971c13.212-2.168,13.63-9.629,13.63-24.425a63.706,63.706,0,0,0-.5-8.962l4.75.293c.208,0,.626.082.626.293a10.074,10.074,0,0,1-.334,1.04c-.084.377,0,9.419,0,11.211,0,16.049-3.877,20.55-17.132,22.841Zm-125.021,0c13.214-2.168,13.63-9.629,13.63-24.425a63.714,63.714,0,0,0-.5-8.962l4.751.293c.208,0,.626.082.626.293,0,.164-.295.873-.334,1.04-.084.377,0,9.419,0,11.211,0,16.049-3.877,20.55-17.132,22.841Zm207.243.5c3.71-.791,16.588-5.878,16.714-25.257l3.708.583c.5.083.709.167.709.332a11.855,11.855,0,0,1-.418,1.125c-2.083,16.8-10.253,21.882-19.754,24.925Zm35.466-.834c5.958-.542,21.795-2.376,24.921-24.59H305.01a25.756,25.756,0,0,1-12,10.878l-1.292-1.959c5.293-2.711,8.463-6.877,10.505-13.421A23.487,23.487,0,0,0,303.261,0l4.586,1.292c.331.085.708.208.708.375,0,.21-.668.919-.752,1.127-.5,1.333-1.417,3.626-1.584,4h9.087c1.333,0,5.542-.169,6.794-.375l2.252,2.291c-.418,1.042-1.877,6.46-2.293,7.67-5.754,16.8-18.84,18.8-27.635,19.548Zm-166.7,0c5.958-.542,21.795-2.376,24.923-24.59H138.317a25.769,25.769,0,0,1-12.005,10.878l-1.291-1.959c5.292-2.711,8.461-6.877,10.5-13.421A23.487,23.487,0,0,0,136.566,0l4.586,1.292c.331.085.707.208.707.375,0,.21-.668.919-.752,1.127-.5,1.333-1.417,3.626-1.584,4h9.087c1.335,0,5.544-.169,6.794-.375l2.252,2.291c-.416,1.042-1.877,6.46-2.291,7.67-5.756,16.8-18.842,18.8-27.635,19.548Zm-125.022,0c5.96-.542,21.8-2.376,24.923-24.59H13.294a25.756,25.756,0,0,1-12,10.878L0,17.966c5.292-2.711,8.461-6.877,10.5-13.421A23.209,23.209,0,0,0,11.545,0l4.586,1.292c.332.085.708.208.708.375,0,.21-.667.919-.75,1.127-.5,1.333-1.417,3.626-1.584,4h9.087c1.333,0,5.541-.169,6.794-.375l2.25,2.291c-.418,1.042-1.875,6.46-2.293,7.67-5.752,16.8-18.838,18.8-27.635,19.548Zm81.931-1.792a13.211,13.211,0,0,0,9.169-5.126,17.631,17.631,0,0,0,3.041-10.63V10.546l4.5.208c.249,0,.75.167.75.291,0,.208-.378,1.125-.378,1.333V14.13c0,14.213-7.459,18.09-16.419,19.924ZM235.5,31.678h-22.34c-.459,0-3.877.041-6.46.206v-3c1.749.128,6.127.211,6.5.211h22.3c1.918,0,4.835-.044,6.627-.251v3.04C239.459,31.718,236.5,31.678,235.5,31.678Zm-64.473-8.628c.044-.667.128-6.042.128-6.751V3.92c0-.293-.128-2.419-.167-3.127l4.46.293c.208,0,.75.039.75.292,0,.167-.542.958-.5,1.164v13.8c0,1,.084,5.585.167,6.71Zm-125.019,0c.043-.667.124-6.042.124-6.751V3.92c0-.293-.124-2.419-.165-3.127l4.46.293c.206,0,.748.039.748.292,0,.167-.542.958-.5,1.164v13.8c0,1,.084,5.585.167,6.71ZM252.791,12.5l1.628-1a34.27,34.27,0,0,1,6.248,9.126L257.086,22.3A24.676,24.676,0,0,0,252.791,12.5ZM103.6,17.55a26.855,26.855,0,0,0,7.5-11.463c0-.169-.211-.208-.459-.208l-20.507.167c-1.792,0-5.212.167-6.877.333V3.543c1.71.167,5.169.293,6.877.293l19.173-.167a40.96,40.96,0,0,0,5.669-.54l2.208,2.624A9.218,9.218,0,0,0,116.108,7.3,40.378,40.378,0,0,1,105.27,19.173Zm158.776-6.835L264,9.8a33.98,33.98,0,0,1,5.711,7.919l-3.669,1.417A24.687,24.687,0,0,0,262.379,10.715Zm-30.17-3.5H216.952c-1.751,0-5,.126-6.668.251V4.378c1.585.123,5.045.251,6.668.251h15.216c1.625,0,5.043-.128,6.668-.251V7.462C237.419,7.338,233.209,7.211,232.209,7.211Z" transform="translate(259.405 548.067)" fill="url(#linear-gradient)"/>
    <g id="グループ_3" data-name="グループ 3" transform="translate(260.379 592.831)">
      <path id="パス_10" data-name="パス 10" d="M223.605,568.862a4.963,4.963,0,0,1-5.27,4.772c-2.749,0-5.454-1.682-5.454-6.429,0-4.726,2.817-6.543,5.635-6.543a4.791,4.791,0,0,1,5.02,4.338h-1.862c-.273-2.61-1.659-3.385-3.135-3.385-3,0-3.749,2.955-3.749,5.681,0,3.249.977,5.383,3.544,5.383,1.3,0,3.112-.544,3.249-3.817Z" transform="translate(-212.882 -555.549)" fill="#4494ca"/>
      <path id="パス_11" data-name="パス 11" d="M220.142,557.963h1.726v17.744h-1.726Z" transform="translate(-206.39 -557.963)" fill="#4494ca"/>
      <path id="パス_12" data-name="パス 12" d="M233.215,568.932a5,5,0,0,1-5.27,4.7c-4.84,0-5.247-4.7-5.247-6.384,0-3.749,1.839-6.588,5.338-6.588,4.952,0,5.135,5.113,5.2,6.884h-8.655c.045,1.476.136,5.133,3.408,5.133,1.387,0,2.976-.7,3.249-3.747ZM231.33,566.8c-.021-1.819-.091-5.183-3.271-5.183-3.2,0-3.385,3.523-3.453,5.183Z" transform="translate(-204.104 -555.549)" fill="#4494ca"/>
      <path id="パス_13" data-name="パス 13" d="M239.056,573.293a2.972,2.972,0,0,1-.93-1.341,6.065,6.065,0,0,1-4.681,1.682c-2.294,0-4.112-.818-4.112-3.317,0-4.088,5.044-4.315,8.566-4.474v-.911c0-2.589-1.339-3.317-3.067-3.317a2.717,2.717,0,0,0-3,2.569h-1.909c.114-1.407,1.318-3.521,5-3.521,1.25,0,4.726.341,4.726,4.179v6.59a3.326,3.326,0,0,0,.407,1.862Zm-1.157-6.564c-3.84,0-6.7,1.044-6.7,3.633,0,1.955,1.728,2.25,2.862,2.25a4.715,4.715,0,0,0,3.84-1.637Z" transform="translate(-198.171 -555.549)" fill="#4494ca"/>
      <path id="パス_14" data-name="パス 14" d="M241.551,562.5c-2.387.048-3,.477-3.569,1.955v8.837h-1.726V561h1.726v2.112a3.455,3.455,0,0,1,3.569-2.453Z" transform="translate(-191.979 -555.549)" fill="#4494ca"/>
      <path id="パス_15" data-name="パス 15" d="M254.505,568.862a4.965,4.965,0,0,1-5.272,4.772c-2.749,0-5.452-1.682-5.452-6.429,0-4.726,2.817-6.543,5.633-6.543A4.794,4.794,0,0,1,254.437,565h-1.864c-.271-2.61-1.659-3.385-3.135-3.385-3,0-3.749,2.955-3.749,5.681,0,3.249.977,5.383,3.544,5.383,1.3,0,3.112-.544,3.249-3.817Z" transform="translate(-185.249 -555.549)" fill="#4494ca"/>
      <path id="パス_16" data-name="パス 16" d="M251.041,557.963h1.726v17.744h-1.726Z" transform="translate(-178.758 -557.963)" fill="#4494ca"/>
      <path id="パス_17" data-name="パス 17" d="M256.086,559.986h-2.021v-2.023h2.021Zm-1.862,3.43h1.726v12.29h-1.726Z" transform="translate(-176.054 -557.963)" fill="#4494ca"/>
      <path id="パス_18" data-name="パス 18" d="M265.084,564.638c0-1.909-1.068-3.023-2.794-3.023-.386,0-2.771,0-3.7,3.3v8.382h-1.726V561h1.726v2.021a4.577,4.577,0,0,1,4.065-2.362c1.841,0,4.137.682,4.137,4.09v8.541h-1.7Z" transform="translate(-173.553 -555.549)" fill="#4494ca"/>
      <path id="パス_19" data-name="パス 19" d="M265.865,559.986h-2.021v-2.023h2.021ZM264,563.417h1.726v12.29H264Z" transform="translate(-167.309 -557.963)" fill="#4494ca"/>
      <path id="パス_20" data-name="パス 20" d="M277.171,568.862a4.964,4.964,0,0,1-5.27,4.772c-2.75,0-5.454-1.682-5.454-6.429,0-4.726,2.817-6.543,5.634-6.543A4.794,4.794,0,0,1,277.1,565h-1.864c-.271-2.61-1.659-3.385-3.135-3.385-3,0-3.749,2.955-3.749,5.681,0,3.249.978,5.383,3.546,5.383,1.294,0,3.11-.544,3.247-3.817Z" transform="translate(-164.98 -555.549)" fill="#4494ca"/>
    </g>
    <line id="線_20" data-name="線 20" x2="330.713" transform="translate(254.778 587.719)" fill="none" stroke="#0099db" stroke-miterlimit="10" stroke-width="0.5"/>
  </g>
</svg>
