<svg xmlns="http://www.w3.org/2000/svg" xmlns:xlink="http://www.w3.org/1999/xlink" width="243.645" height="59.843" viewBox="0 0 243.645 59.843">
  <defs>
    <linearGradient id="linear-gradient" x1="0.5" y1="-0.811" x2="0.5" y2="0.678" gradientUnits="objectBoundingBox">
      <stop offset="0.165" stop-color="#1683c9"/>
      <stop offset="1" stop-color="#54abe2"/>
    </linearGradient>
  </defs>
  <g id="グループ_50" data-name="グループ 50" transform="translate(-159.769 -518.973)">
    <path id="パス_1" data-name="パス 1" d="M189.177,519.026c-12.914-.795-23.786,7.33-23.541,20.565l-.009,1.2-5.611,9.906a1.91,1.91,0,0,0,1.293,2.816l3.468.957,1.087,10.506a3.623,3.623,0,0,0,4.022,3.5l2.768.22a1.912,1.912,0,0,1,2.124,1.9v8.22H198.2v-5.565c0-1.6.551-5.248,1.6-6.92,3.8-6.072,9.979-9.3,11.021-21.756S204.434,519.966,189.177,519.026ZM174.188,545.4c4.227,0,5.579-1.613,5.579-6.662,0,5.049,1.351,6.662,5.578,6.662-4.227,0-5.578,1.614-5.578,6.662C179.766,547.019,178.414,545.4,174.188,545.4Zm9.949,21.732c0-8.187-.93-9.7-5.959-9.7,5.029,0,5.959-1.515,5.959-9.7,0,8.186.93,9.7,5.959,9.7C185.067,557.436,184.136,558.949,184.136,567.136Z" fill="#fdd4b3"/>
    <path id="合体_1" data-name="合体 1" d="M100.887,19.442c7.562-1.241,7.8-5.511,7.8-13.979A36.46,36.46,0,0,0,108.4.334L111.12.5c.119,0,.358.047.358.168a5.767,5.767,0,0,1-.191.6c-.048.216,0,5.391,0,6.416,0,9.185-2.219,11.761-9.8,13.072Zm-71.55,0c7.563-1.241,7.8-5.511,7.8-13.979A36.464,36.464,0,0,0,36.851.334L39.57.5c.119,0,.358.047.358.168,0,.094-.169.5-.191.6-.048.216,0,5.391,0,6.416,0,9.185-2.219,11.761-9.8,13.072Zm118.607.286c2.123-.453,9.493-3.364,9.566-14.455l2.122.334c.287.048.406.1.406.19a6.784,6.784,0,0,1-.239.644c-1.192,9.614-5.868,12.523-11.305,14.265Zm20.3-.477c3.41-.31,12.473-1.36,14.263-14.073H174.56a14.74,14.74,0,0,1-6.87,6.226l-.74-1.121c3.029-1.551,4.843-3.936,6.012-7.681a13.443,13.443,0,0,0,.6-2.6l2.625.74c.189.049.4.119.4.215,0,.12-.382.526-.43.645-.285.763-.811,2.075-.906,2.29h5.2c.763,0,3.172-.1,3.888-.215l1.289,1.311c-.239.6-1.074,3.7-1.312,4.39-3.293,9.613-10.782,10.758-15.816,11.187Zm-95.4,0c3.41-.31,12.473-1.36,14.264-14.073H79.16A14.748,14.748,0,0,1,72.289,11.4l-.739-1.121C74.579,8.73,76.393,6.346,77.562,2.6a13.442,13.442,0,0,0,.6-2.6l2.625.74c.189.049.4.119.4.215,0,.12-.382.526-.43.645-.285.763-.811,2.075-.906,2.29h5.2c.764,0,3.173-.1,3.888-.215l1.289,1.311c-.238.6-1.074,3.7-1.311,4.39C85.623,18.988,78.133,20.133,73.1,20.563Zm-71.551,0C4.7,18.94,13.763,17.89,15.552,5.177H7.608A14.741,14.741,0,0,1,.739,11.4L0,10.282C3.029,8.73,4.842,6.346,6.01,2.6a13.283,13.283,0,0,0,.6-2.6L9.232.74c.19.049.4.119.4.215,0,.12-.382.526-.429.645-.286.763-.811,2.075-.906,2.29h5.2c.763,0,3.171-.1,3.888-.215l1.288,1.311c-.239.6-1.073,3.7-1.312,4.39C14.073,18.988,6.584,20.133,1.549,20.563Zm46.89-1.025a7.561,7.561,0,0,0,5.247-2.934,10.09,10.09,0,0,0,1.741-6.083V6.036l2.578.119c.142,0,.429.1.429.167,0,.119-.217.644-.217.763v1c0,8.134-4.269,10.353-9.4,11.4Zm86.6-.1H121.994c-.262,0-2.219.023-3.7.118V16.53c1,.073,3.507.121,3.721.121h12.761c1.1,0,2.767-.025,3.793-.143v1.74C137.045,18.153,135.353,18.129,134.779,18.129Zm-36.9-4.938c.025-.382.073-3.458.073-3.864V2.243c0-.168-.073-1.385-.1-1.789l2.552.168c.119,0,.429.022.429.167,0,.1-.31.548-.287.666v7.9c0,.573.048,3.2.1,3.84Zm-71.549,0c.024-.382.071-3.458.071-3.864V2.243c0-.168-.071-1.385-.095-1.789L28.86.622c.118,0,.428.022.428.167,0,.1-.31.548-.286.666v7.9c0,.573.048,3.2.1,3.84ZM144.675,7.157l.932-.572a19.612,19.612,0,0,1,3.576,5.223l-2.05.954A14.122,14.122,0,0,0,144.675,7.157ZM59.293,10.044a15.369,15.369,0,0,0,4.295-6.561c0-.1-.121-.119-.262-.119l-11.737.1c-1.025,0-2.983.1-3.936.19V2.028c.979.1,2.958.168,3.936.168l10.973-.1a23.442,23.442,0,0,0,3.244-.309l1.264,1.5a5.276,5.276,0,0,0-.62.883,23.109,23.109,0,0,1-6.2,6.8Zm90.869-3.912.93-.526a19.447,19.447,0,0,1,3.269,4.532l-2.1.811A14.129,14.129,0,0,0,150.162,6.132ZM132.9,4.127h-8.731c-1,0-2.861.072-3.816.143V2.506c.907.07,2.887.143,3.816.143h8.708c.93,0,2.886-.073,3.816-.143V4.271C135.877,4.2,133.468,4.127,132.9,4.127Z" transform="translate(216.791 535.624)" fill="url(#linear-gradient)"/>
    <g id="グループ_3" data-name="グループ 3" transform="translate(217.349 561.242)">
      <path id="パス_10" data-name="パス 10" d="M219.019,565.355A2.841,2.841,0,0,1,216,568.086c-1.573,0-3.121-.963-3.121-3.679s1.612-3.745,3.225-3.745a2.742,2.742,0,0,1,2.873,2.483h-1.066c-.156-1.494-.95-1.937-1.794-1.937-1.717,0-2.145,1.691-2.145,3.251,0,1.859.559,3.081,2.028,3.081.742,0,1.781-.311,1.859-2.184Z" transform="translate(-212.882 -557.736)" fill="#4494ca"/>
      <path id="パス_11" data-name="パス 11" d="M220.142,557.963h.988v10.155h-.988Z" transform="translate(-212.271 -557.963)" fill="#4494ca"/>
      <path id="パス_12" data-name="パス 12" d="M228.717,565.4a2.86,2.86,0,0,1-3.016,2.691c-2.77,0-3-2.691-3-3.653,0-2.145,1.053-3.771,3.055-3.771,2.834,0,2.939,2.926,2.977,3.94h-4.953c.026.845.078,2.938,1.95,2.938.794,0,1.7-.4,1.859-2.144Zm-1.079-1.222c-.012-1.041-.052-2.966-1.872-2.966s-1.937,2.016-1.976,2.966Z" transform="translate(-212.056 -557.736)" fill="#4494ca"/>
      <path id="パス_13" data-name="パス 13" d="M234.9,567.891a1.7,1.7,0,0,1-.532-.768,3.471,3.471,0,0,1-2.679.963c-1.313,0-2.354-.468-2.354-1.9,0-2.339,2.887-2.47,4.9-2.561v-.521c0-1.482-.766-1.9-1.755-1.9a1.555,1.555,0,0,0-1.716,1.47h-1.093c.065-.805.755-2.015,2.861-2.015a2.4,2.4,0,0,1,2.7,2.392v3.772a1.9,1.9,0,0,0,.233,1.066Zm-.662-3.756c-2.2,0-3.836.6-3.836,2.079,0,1.119.989,1.288,1.638,1.288a2.7,2.7,0,0,0,2.2-.937Z" transform="translate(-211.498 -557.736)" fill="#4494ca"/>
      <path id="パス_14" data-name="パス 14" d="M239.287,561.715c-1.366.027-1.717.273-2.042,1.119v5.057h-.988v-7.034h.988v1.209a1.978,1.978,0,0,1,2.042-1.4Z" transform="translate(-210.916 -557.736)" fill="#4494ca"/>
      <path id="パス_15" data-name="パス 15" d="M249.919,565.355a2.841,2.841,0,0,1-3.017,2.731c-1.573,0-3.12-.963-3.12-3.679s1.612-3.745,3.224-3.745a2.744,2.744,0,0,1,2.874,2.483h-1.067c-.155-1.494-.95-1.937-1.794-1.937-1.716,0-2.145,1.691-2.145,3.251,0,1.859.559,3.081,2.028,3.081.742,0,1.781-.311,1.859-2.184Z" transform="translate(-210.283 -557.736)" fill="#4494ca"/>
      <path id="パス_16" data-name="パス 16" d="M251.041,557.963h.988v10.155h-.988Z" transform="translate(-209.673 -557.963)" fill="#4494ca"/>
      <path id="パス_17" data-name="パス 17" d="M255.222,559.121h-1.157v-1.158h1.157Zm-1.066,1.963h.988v7.034h-.988Z" transform="translate(-209.418 -557.963)" fill="#4494ca"/>
      <path id="パス_18" data-name="パス 18" d="M261.567,562.938a1.535,1.535,0,0,0-1.6-1.73c-.221,0-1.586,0-2.119,1.886v4.8h-.988v-7.034h.988v1.157a2.619,2.619,0,0,1,2.326-1.352A2.114,2.114,0,0,1,262.543,563v4.888h-.976Z" transform="translate(-209.183 -557.736)" fill="#4494ca"/>
      <path id="パス_19" data-name="パス 19" d="M265,559.121h-1.157v-1.158H265Zm-1.066,1.963h.988v7.034h-.988Z" transform="translate(-208.596 -557.963)" fill="#4494ca"/>
      <path id="パス_20" data-name="パス 20" d="M272.585,565.355a2.841,2.841,0,0,1-3.016,2.731c-1.574,0-3.121-.963-3.121-3.679s1.612-3.745,3.224-3.745a2.744,2.744,0,0,1,2.874,2.483h-1.067c-.155-1.494-.95-1.937-1.794-1.937-1.716,0-2.145,1.691-2.145,3.251,0,1.859.559,3.081,2.029,3.081.74,0,1.78-.311,1.858-2.184Z" transform="translate(-208.377 -557.736)" fill="#4494ca"/>
    </g>
    <line id="線_20" data-name="線 20" x2="189.27" transform="translate(214.143 558.317)" fill="none" stroke="#0099db" stroke-miterlimit="10" stroke-width="0.5"/>
  </g>
</svg>
