<svg xmlns="http://www.w3.org/2000/svg" width="176" height="25.311" viewBox="0 0 176 25.311">
  <g id="グループ_52" data-name="グループ 52" transform="translate(-958 -140.689)">
    <text id="_080-1504-5527" data-name="080-1504-5527" transform="translate(984 161)" fill="gray" font-size="22" font-family="ArialMT, Arial"><tspan x="0" y="0">080-1504-5527</tspan></text>
    <g id="受話器のアイコン" transform="translate(934.114 140.689)">
      <path id="パス_21" data-name="パス 21" d="M43.676,17.444a20.5,20.5,0,0,0-4.232-2.664,1.737,1.737,0,0,0-1.889,1.193c-.306.816-.734.7-.734.7S35.2,15.91,32.4,12.587s-3.275-5.051-3.275-5.051-.043-.443.813-.606,1.6-.949,1.5-1.659A20.461,20.461,0,0,0,29.524.65,2.022,2.022,0,0,0,27.1.224c-.33.2-3.78,1.991-3.131,5.9A20.194,20.194,0,0,0,28.582,15.8a20.189,20.189,0,0,0,8.753,6.189c3.746,1.3,6.1-1.793,6.349-2.084A2.023,2.023,0,0,0,43.676,17.444Z" transform="translate(0 0)" fill="#0abbfc"/>
    </g>
  </g>
</svg>
