<svg xmlns="http://www.w3.org/2000/svg" xmlns:xlink="http://www.w3.org/1999/xlink" width="175.136" height="43.016" viewBox="0 0 175.136 43.016">
  <defs>
    <linearGradient id="linear-gradient" x1="0.5" y1="-0.811" x2="0.5" y2="0.678" gradientUnits="objectBoundingBox">
      <stop offset="0.165" stop-color="#1683c9"/>
      <stop offset="1" stop-color="#54abe2"/>
    </linearGradient>
  </defs>
  <g id="グループ_25" data-name="グループ 25" transform="translate(-159.769 -518.973)">
    <path id="パス_1" data-name="パス 1" d="M180.908,519.011c-9.283-.571-17.1,5.269-16.922,14.783l-.006.862-4.034,7.121a1.373,1.373,0,0,0,.93,2.024l2.493.688.782,7.552a2.6,2.6,0,0,0,2.891,2.515l1.989.158a1.374,1.374,0,0,1,1.527,1.366v5.908H187.4v-4a12.165,12.165,0,0,1,1.149-4.974c2.729-4.365,7.173-6.687,7.922-15.638S191.875,519.687,180.908,519.011Zm-10.775,18.961c3.038,0,4.01-1.16,4.01-4.789,0,3.629.971,4.789,4.009,4.789-3.038,0-4.009,1.16-4.009,4.789C174.143,539.133,173.172,537.972,170.133,537.972Zm7.151,15.621c0-5.885-.669-6.973-4.284-6.973,3.615,0,4.284-1.089,4.284-6.973,0,5.884.669,6.973,4.284,6.973C177.953,546.621,177.285,547.709,177.285,553.594Z" fill="#fdd4b3"/>
    <path id="合体_1" data-name="合体 1" d="M72.519,13.975c5.435-.892,5.607-3.961,5.607-10.048A26.208,26.208,0,0,0,77.921.24l1.954.121c.086,0,.257.034.257.121a4.147,4.147,0,0,1-.137.428c-.034.155,0,3.875,0,4.612,0,6.6-1.595,8.454-7.048,9.4Zm-51.432,0c5.436-.892,5.607-3.961,5.607-10.048A26.211,26.211,0,0,0,26.489.24l1.955.121c.086,0,.257.034.257.121,0,.067-.121.359-.137.428-.034.155,0,3.875,0,4.612,0,6.6-1.595,8.454-7.048,9.4Zm85.257.206c1.526-.325,6.824-2.418,6.876-10.39l1.525.24c.206.034.292.069.292.137a4.875,4.875,0,0,1-.172.463c-.857,6.911-4.218,9-8.126,10.254Zm14.59-.343c2.451-.223,8.966-.978,10.252-10.116h-5.71A10.6,10.6,0,0,1,120.539,8.2l-.532-.806a8.457,8.457,0,0,0,4.322-5.521A9.663,9.663,0,0,0,124.757,0l1.887.532c.136.035.291.086.291.154,0,.086-.275.378-.309.464-.2.549-.583,1.492-.652,1.646h3.738c.548,0,2.28-.069,2.795-.154l.926.943c-.172.429-.772,2.657-.943,3.155-2.367,6.91-7.751,7.733-11.369,8.042Zm-68.576,0c2.451-.223,8.966-.978,10.253-10.116H56.9A10.6,10.6,0,0,1,51.963,8.2l-.531-.806A8.458,8.458,0,0,0,55.753,1.87,9.662,9.662,0,0,0,56.181,0l1.887.532c.136.035.291.086.291.154,0,.086-.275.378-.309.464-.2.549-.583,1.492-.652,1.646h3.738c.549,0,2.281-.069,2.795-.154l.926.943c-.171.429-.772,2.657-.943,3.155-2.368,6.91-7.751,7.733-11.369,8.042Zm-51.432,0c2.452-.223,8.967-.978,10.253-10.116H5.469A10.6,10.6,0,0,1,.531,8.2L0,7.391A8.455,8.455,0,0,0,4.32,1.87,9.548,9.548,0,0,0,4.75,0L6.636.532c.137.035.291.086.291.154,0,.086-.274.378-.309.464C6.413,1.7,6.036,2.641,5.967,2.8H9.705c.548,0,2.279-.069,2.795-.154l.926.943c-.172.429-.771,2.657-.943,3.155-2.366,6.91-7.75,7.733-11.369,8.042ZM34.631,13.1A5.435,5.435,0,0,0,38.4,10.991a7.253,7.253,0,0,0,1.251-4.373V4.339l1.853.086c.1,0,.309.069.309.12,0,.086-.156.463-.156.548v.72c0,5.847-3.068,7.442-6.755,8.2Zm62.251-.069h-9.19c-.189,0-1.595.017-2.657.085V11.882c.72.053,2.521.087,2.675.087h9.173c.789,0,1.989-.018,2.726-.1v1.251C98.51,13.049,97.294,13.032,96.882,13.032ZM70.358,9.482c.018-.274.053-2.486.053-2.777V1.612c0-.121-.053-1-.069-1.286l1.835.121c.086,0,.309.016.309.12,0,.069-.223.394-.206.479V6.722c0,.412.034,2.3.069,2.761Zm-51.431,0c.018-.274.051-2.486.051-2.777V1.612c0-.121-.051-1-.068-1.286l1.835.121c.085,0,.308.016.308.12,0,.069-.223.394-.205.479V6.722c0,.412.034,2.3.069,2.761Zm85.068-4.338.67-.411a14.1,14.1,0,0,1,2.57,3.754l-1.474.686A10.152,10.152,0,0,0,103.995,5.144ZM42.621,7.22A11.048,11.048,0,0,0,45.708,2.5c0-.069-.087-.086-.189-.086l-8.436.069c-.737,0-2.144.069-2.829.137V1.457c.7.069,2.126.121,2.829.121l7.887-.069A16.85,16.85,0,0,0,47.3,1.287l.908,1.079A3.792,3.792,0,0,0,47.765,3a16.611,16.611,0,0,1-4.458,4.886Zm65.318-2.812.668-.378a13.979,13.979,0,0,1,2.35,3.258l-1.509.583A10.156,10.156,0,0,0,107.939,4.408ZM95.527,2.967H89.251c-.72,0-2.056.052-2.743.1V1.8c.652.051,2.075.1,2.743.1h6.26c.668,0,2.075-.053,2.743-.1V3.07C97.671,3.019,95.939,2.967,95.527,2.967Z" transform="translate(200.758 530.942)" fill="url(#linear-gradient)"/>
    <g id="グループ_3" data-name="グループ 3" transform="translate(201.158 549.357)">
      <path id="パス_10" data-name="パス 10" d="M217.293,564.036A2.042,2.042,0,0,1,215.126,566c-1.131,0-2.244-.692-2.244-2.645s1.159-2.692,2.318-2.692a1.971,1.971,0,0,1,2.065,1.785H216.5c-.112-1.074-.683-1.393-1.29-1.393-1.234,0-1.542,1.216-1.542,2.337,0,1.336.4,2.215,1.458,2.215.533,0,1.28-.224,1.336-1.57Z" transform="translate(-212.882 -558.559)" fill="#4494ca"/>
      <path id="パス_11" data-name="パス 11" d="M220.142,557.963h.71v7.3h-.71Z" transform="translate(-214.484 -557.963)" fill="#4494ca"/>
      <path id="パス_12" data-name="パス 12" d="M227.025,564.064A2.056,2.056,0,0,1,224.857,566c-1.991,0-2.159-1.934-2.159-2.626,0-1.542.757-2.71,2.2-2.71,2.037,0,2.113,2.1,2.14,2.832h-3.561c.019.607.056,2.112,1.4,2.112.57,0,1.224-.289,1.336-1.541Zm-.775-.878c-.009-.748-.037-2.132-1.346-2.132s-1.393,1.449-1.421,2.132Z" transform="translate(-215.049 -558.559)" fill="#4494ca"/>
      <path id="パス_13" data-name="パス 13" d="M233.333,565.858a1.223,1.223,0,0,1-.383-.552,2.5,2.5,0,0,1-1.926.692c-.944,0-1.692-.337-1.692-1.365,0-1.682,2.075-1.775,3.524-1.841v-.375c0-1.065-.551-1.365-1.262-1.365a1.118,1.118,0,0,0-1.234,1.057h-.786c.047-.579.542-1.449,2.057-1.449a1.724,1.724,0,0,1,1.944,1.719v2.711a1.368,1.368,0,0,0,.168.766Zm-.476-2.7c-1.58,0-2.757.429-2.757,1.495,0,.8.711.926,1.177.926a1.94,1.94,0,0,0,1.58-.673Z" transform="translate(-216.513 -558.559)" fill="#4494ca"/>
      <path id="パス_14" data-name="パス 14" d="M238.435,561.419c-.982.02-1.234.2-1.468.8v3.635h-.71V560.8h.71v.869a1.422,1.422,0,0,1,1.468-1.009Z" transform="translate(-218.042 -558.559)" fill="#4494ca"/>
      <path id="パス_15" data-name="パス 15" d="M248.193,564.036A2.043,2.043,0,0,1,246.025,566c-1.131,0-2.243-.692-2.243-2.645s1.159-2.692,2.318-2.692a1.972,1.972,0,0,1,2.066,1.785H247.4c-.111-1.074-.683-1.393-1.29-1.393-1.234,0-1.542,1.216-1.542,2.337,0,1.336.4,2.215,1.458,2.215.533,0,1.28-.224,1.336-1.57Z" transform="translate(-219.702 -558.559)" fill="#4494ca"/>
      <path id="パス_16" data-name="パス 16" d="M251.041,557.963h.71v7.3h-.71Z" transform="translate(-221.305 -557.963)" fill="#4494ca"/>
      <path id="パス_17" data-name="パス 17" d="M254.9,558.8h-.831v-.832h.831Zm-.766,1.411h.71v5.056h-.71Z" transform="translate(-221.972 -557.963)" fill="#4494ca"/>
      <path id="パス_18" data-name="パス 18" d="M260.244,562.3a1.1,1.1,0,0,0-1.149-1.244c-.159,0-1.14,0-1.523,1.356v3.448h-.71V560.8h.71v.831a1.883,1.883,0,0,1,1.672-.972,1.52,1.52,0,0,1,1.7,1.682v3.514h-.7Z" transform="translate(-222.589 -558.559)" fill="#4494ca"/>
      <path id="パス_19" data-name="パス 19" d="M264.675,558.8h-.831v-.832h.831Zm-.766,1.411h.71v5.056h-.71Z" transform="translate(-224.131 -557.963)" fill="#4494ca"/>
      <path id="パス_20" data-name="パス 20" d="M270.859,564.036A2.042,2.042,0,0,1,268.692,566c-1.132,0-2.244-.692-2.244-2.645s1.159-2.692,2.318-2.692a1.972,1.972,0,0,1,2.066,1.785h-.767c-.111-1.074-.683-1.393-1.29-1.393-1.234,0-1.542,1.216-1.542,2.337,0,1.336.4,2.215,1.459,2.215.532,0,1.28-.224,1.336-1.57Z" transform="translate(-224.705 -558.559)" fill="#4494ca"/>
    </g>
    <line id="線_20" data-name="線 20" x2="136.051" transform="translate(198.854 547.254)" fill="none" stroke="#0099db" stroke-miterlimit="10" stroke-width="0.5"/>
  </g>
</svg>
